<svg xmlns:ev="http://www.w3.org/2001/xml-events" xmlns:xlink="http://www.w3.org/1999/xlink" height="737" width="1103" xmlns="http://www.w3.org/2000/svg" viewBox="0 0 1103 737"><defs/><g id="page3" transform="translate(5.5,5.5)"><rect x="0" height="727" width="1093" fill="#ffffff" y="0"/><g id="shape1" transform="translate(360.38,20.00)"><path fill="none" stroke="#323232" d="M397.0,95.0L397.0,.0L.0,.0L.0,95.0L397.0,95.0z"/><text style="fill:#000000;font-family:Monaco;font-size:10.00pt" xml:space="preserve"><tspan x="4.0" y="19.0">org 0x7c00</tspan><tspan x="4.0" y="40.0">jmp short Label_Start</tspan><tspan x="4.0" y="62.0">Label_Start: 初始化堆栈，清屏，设置焦点，打印"Start </tspan><tspan x="4.0" y="84.0">Boot"，复位磁盘</tspan></text></g><g id="shape2" transform="translate(360.38,142.50)"><path fill="none" stroke="#323232" d="M397.0,57.0L397.0,.0L.0,.0L.0,57.0L397.0,57.0z"/><text style="fill:#000000;font-family:Monaco;font-size:10.00pt" xml:space="preserve"><tspan x="4.0" y="20.0">Lable_Search_In_Root_Dir_Begin: 从第19(SectorNo)</tspan><tspan x="4.0" y="42.0">个扇区开始找，找14(RootDirSizeForLoop)个根目录扇区</tspan></text></g><g id="shape3" transform="translate(808.14,142.50)"><path fill="none" stroke="#323232" d="M265.0,57.0L265.0,.0L.0,.0L.0,57.0L265.0,57.0z"/><text style="fill:#000000;font-family:Monaco;font-size:10.00pt" xml:space="preserve"><tspan x="4.0" y="19.0">Label_No_LoaderBin:</tspan><tspan x="4.0" y="41.0">输出"ERROR:No LOADER Found"</tspan></text></g><g id="shape4" transform="translate(360.38,227.00)"><path fill="none" stroke="#323232" d="M397.0,57.0L397.0,.0L.0,.0L.0,57.0L397.0,57.0z"/><text style="fill:#000000;font-family:Monaco;font-size:10.00pt" xml:space="preserve"><tspan x="4.0" y="20.0">Func_ReadOneSector: 读一个扇区，与</tspan><tspan x="4.0" y="42.0">Label_Go_On_Reading是一体的通过ret回到正常堆栈</tspan></text></g><g id="shape5" transform="translate(558.88,199.50)"><path fill="none" stroke="#191919" d="M.0,.0L.0,21.5"/><path stroke-linecap="round" fill="#191919" stroke="#191919" d="M3.0,21.5L.0,27.5L-3.0,21.5L3.0,21.5" stroke-width="1"/></g><g id="shape6" transform="translate(360.38,311.50)"><path fill="none" stroke="#323232" d="M397.0,57.0L397.0,.0L.0,.0L.0,57.0L397.0,57.0z"/><text style="fill:#000000;font-family:Monaco;font-size:10.00pt" xml:space="preserve"><tspan x="4.0" y="20.0">Label_Search_For_LoaderBin: 遍历一个扇区的所有目录项</tspan></text></g><g id="shape7" transform="translate(360.38,396.00)"><path fill="none" stroke="#323232" d="M397.0,57.0L397.0,.0L.0,.0L.0,57.0L397.0,57.0z"/><text style="fill:#000000;font-family:Monaco;font-size:10.00pt" xml:space="preserve"><tspan x="4.0" y="20.0">Label_Cmp_FileName: 逐字符比较文件名(loader  bin)</tspan></text></g><g id="shape8" transform="translate(20.38,396.00)"><path fill="none" stroke="#323232" d="M294.5,57.0L294.5,.0L.0,.0L.0,57.0L294.5,57.0z"/><text style="fill:#000000;font-family:Monaco;font-size:10.00pt" xml:space="preserve"><tspan x="4.2" y="20.0">Label_Go_On: 字符相等，比较下一个</tspan></text></g><g id="shape9" transform="translate(808.14,396.00)"><path fill="none" stroke="#323232" d="M265.0,57.0L265.0,.0L.0,.0L.0,57.0L265.0,57.0z"/><text style="fill:#000000;font-family:Monaco;font-size:10.00pt" xml:space="preserve"><tspan x="4.0" y="20.0">Label_Different: 字符不相等，去下一</tspan><tspan x="4.0" y="42.0">个目录项比较</tspan></text></g><g id="shape10" transform="translate(20.38,311.50)"><path fill="none" stroke="#323232" d="M294.5,57.0L294.5,.0L.0,.0L.0,57.0L294.5,57.0z"/><text style="fill:#000000;font-family:Monaco;font-size:10.00pt" xml:space="preserve"><tspan x="4.2" y="19.0">Label_Goto_Next_Sector_In_Root_Dir:</tspan><tspan x="4.2" y="41.0">扇区所有目录项比较完毕，读取下一个扇区</tspan></text></g><g id="shape11" transform="translate(558.88,284.00)"><path fill="none" stroke="#191919" d="M.0,.0L.0,21.5"/><path stroke-linecap="round" fill="#191919" stroke="#191919" d="M3.0,21.5L.0,27.5L-3.0,21.5L3.0,21.5" stroke-width="1"/></g><g id="shape12" transform="translate(558.88,368.50)"><path fill="none" stroke="#191919" d="M.0,.0L.0,21.5"/><path stroke-linecap="round" fill="#191919" stroke="#191919" d="M3.0,21.5L.0,27.5L-3.0,21.5L3.0,21.5" stroke-width="1"/></g><g id="shape13" transform="translate(360.38,480.50)"><path fill="none" stroke="#323232" d="M397.0,57.0L397.0,.0L.0,.0L.0,57.0L397.0,57.0z"/><text style="fill:#000000;font-family:Monaco;font-size:10.00pt" xml:space="preserve"><tspan x="4.0" y="20.0">Label_FileName_Found: 所有字符相等，说明文件已找到</tspan></text></g><g id="shape14" transform="translate(757.38,424.50)"><path fill="none" stroke="#191919" d="M.0,.0L44.8,.0"/><path stroke-linecap="round" fill="#191919" stroke="#191919" d="M44.8,-3.0L50.8,.0L44.8,3.0L44.8,-3.0" stroke-width="1"/></g><g id="shape15" transform="translate(940.64,396.00)"><path fill="none" stroke="#191919" d="M.0,.0L.0,-56.0L-177.3,-56.0"/><path stroke-linecap="round" fill="#191919" stroke="#191919" d="M-177.3,-53.0L-183.3,-56.0L-177.3,-59.0L-177.3,-53.0" stroke-width="1"/></g><g id="shape16" transform="translate(360.38,340.00)"><path fill="none" stroke="#191919" d="M.0,.0L-39.5,.0"/><path stroke-linecap="round" fill="#191919" stroke="#191919" d="M-39.5,3.0L-45.5,.0L-39.5,-3.0L-39.5,3.0" stroke-width="1"/></g><g id="shape17" transform="translate(167.62,311.50)"><path fill="none" stroke="#191919" d="M.0,.0L.0,-140.5L186.8,-140.5"/><path stroke-linecap="round" fill="#191919" stroke="#191919" d="M186.8,-143.5L192.8,-140.5L186.8,-137.5L186.8,-143.5" stroke-width="1"/></g><g id="shape18" transform="translate(757.38,171.00)"><path fill="none" stroke="#191919" d="M.0,.0L44.8,.0"/><path stroke-linecap="round" fill="#191919" stroke="#191919" d="M44.8,-3.0L50.8,.0L44.8,3.0L44.8,-3.0" stroke-width="1"/></g><g id="shape19" transform="translate(558.88,453.00)"><path fill="none" stroke="#191919" d="M.0,.0L.0,21.5"/><path stroke-linecap="round" fill="#191919" stroke="#191919" d="M3.0,21.5L.0,27.5L-3.0,21.5L3.0,21.5" stroke-width="1"/></g><g id="shape20" transform="translate(558.88,115.00)"><path fill="none" stroke="#191919" d="M.0,.0L.0,21.5"/><path stroke-linecap="round" fill="#191919" stroke="#191919" d="M3.0,21.5L.0,27.5L-3.0,21.5L3.0,21.5" stroke-width="1"/></g><g id="shape21" transform="translate(360.38,565.00)"><path fill="none" stroke="#323232" d="M397.0,57.0L397.0,.0L.0,.0L.0,57.0L397.0,57.0z"/><text style="fill:#000000;font-family:Monaco;font-size:10.00pt" xml:space="preserve"><tspan x="4.0" y="20.0">Label_Go_On_Loading_File: 通过Func_ReadOneSector</tspan><tspan x="4.0" y="42.0">循环读取扇区内容到内存中，直到读到文件尾</tspan></text></g><g id="shape22" transform="translate(558.88,537.50)"><path fill="none" stroke="#191919" d="M.0,.0L.0,21.5"/><path stroke-linecap="round" fill="#191919" stroke="#191919" d="M3.0,21.5L.0,27.5L-3.0,21.5L3.0,21.5" stroke-width="1"/></g><g id="shape23" transform="translate(360.38,649.50)"><path fill="none" stroke="#323232" d="M397.0,57.0L397.0,.0L.0,.0L.0,57.0L397.0,57.0z"/><text style="fill:#000000;font-family:Monaco;font-size:10.00pt" xml:space="preserve"><tspan x="4.0" y="20.0">Label_File_Loaded: 文件加载完毕</tspan></text></g><g id="shape24" transform="translate(558.88,622.00)"><path fill="none" stroke="#191919" d="M.0,.0L.0,21.5"/><path stroke-linecap="round" fill="#191919" stroke="#191919" d="M3.0,21.5L.0,27.5L-3.0,21.5L3.0,21.5" stroke-width="1"/></g><g id="shape25" transform="translate(314.86,443.82)"><path fill="none" stroke="#191919" d="M.0,.0L39.5,.0"/><path stroke-linecap="round" fill="#191919" stroke="#191919" d="M39.5,-3.0L45.5,.0L39.5,3.0L39.5,-3.0" stroke-width="1"/></g><g id="shape26" transform="translate(360.38,406.85)"><path fill="none" stroke="#191919" d="M.0,.0L-39.5,.0"/><path stroke-linecap="round" fill="#191919" stroke="#191919" d="M-39.5,3.0L-45.5,.0L-39.5,-3.0L-39.5,3.0" stroke-width="1"/></g></g></svg>