<svg xmlns="http://www.w3.org/2000/svg" width="1127" xmlns:ev="http://www.w3.org/2001/xml-events" height="824" xmlns:xlink="http://www.w3.org/1999/xlink" viewBox="0 0 1127 824"><style type="text/css"><![CDATA[
.st1 {fill:#000000;font-family:YaHei Monaco Hybird;font-size:10pt}
]]></style><defs/><g id="page1" transform="translate(5,5)"><rect width="1117" height="814" stroke="#808080" y="0" fill="#ffffff" x="0"/><g id="shape1" transform="translate(304,76)"><path stroke="#213849" fill="#fdb933" fill-rule="evenodd" d="M95,38L95,0L0,0L0,38L95,38z"/><text class="st1"><tspan y="23" x="8">0x00000000</tspan></text></g><g id="shape2" transform="translate(304,114)"><path stroke="#213849" fill="#fdb933" fill-rule="evenodd" d="M95,38L95,0L0,0L0,38L95,38z"/><text class="st1"><tspan y="23" x="8">0x0063FDB0</tspan></text></g><g id="shape3" transform="translate(304,152)"><path stroke="#213849" fill="#aa92ce" fill-rule="evenodd" d="M95,38L95,0L0,0L0,38L95,38z"/><text class="st1"><tspan y="23" x="8">0x00000000</tspan></text></g><g id="shape4" transform="translate(304,190)"><path stroke="#213849" fill="#aa92ce" fill-rule="evenodd" d="M95,38L95,0L0,0L0,38L95,38z"/><text class="st1"><tspan y="23" x="8">0x0063FDA8</tspan></text></g><g id="shape5" transform="translate(304,228)"><path stroke="#213849" fill="#deb887" fill-rule="evenodd" d="M95,38L95,0L0,0L0,38L95,38z"/><text class="st1"><tspan y="23" x="8">0x00000000</tspan></text></g><g id="shape6" transform="translate(304,265)"><path stroke="#213849" fill="#deb887" fill-rule="evenodd" d="M95,38L95,0L0,0L0,38L95,38z"/><text class="st1"><tspan y="23" x="8">0x0063FDD0</tspan></text></g><g id="shape7" transform="translate(304,302.85)"><path stroke="#213849" fill="#efab94" fill-rule="evenodd" d="M95,38L95,0L0,0L0,38L95,38z"/><text class="st1"><tspan y="23" x="44">1</tspan></text></g><g id="shape8" transform="translate(304,341)"><path stroke="#213849" fill="#efab94" fill-rule="evenodd" d="M95,38L95,0L0,0L0,38L95,38z"/><text class="st1"><tspan y="23" x="36">...</tspan></text></g><g id="shape9" transform="translate(304,379)"><path stroke="#213849" fill="#efab94" fill-rule="evenodd" d="M95,38L95,0L0,0L0,38L95,38z"/><text class="st1"><tspan y="23" x="40">12</tspan></text></g><g id="shape10" transform="translate(304,416)"><path stroke="#213849" fill="#ffffff" fill-rule="evenodd" d="M95,38L95,0L0,0L0,38L95,38z"/><text class="st1"><tspan y="23" x="20">...4...</tspan></text></g><g id="shape11" transform="translate(304,454)"><path stroke="#213849" fill="#00b4f0" fill-rule="evenodd" d="M95,38L95,0L0,0L0,38L95,38z"/><text class="st1"><tspan y="23" x="12">0x0000000</tspan></text></g><g id="shape12" transform="translate(304,492)"><path stroke="#213849" fill="#00b4f0" fill-rule="evenodd" d="M95,38L95,0L0,0L0,38L95,38z"/><text class="st1"><tspan y="23" x="8">0x0063FDF8</tspan></text></g><g id="shape13" transform="translate(304,530)"><path stroke="#213849" fill="#00b4f0" fill-rule="evenodd" d="M95,38L95,0L0,0L0,38L95,38z"/><text class="st1"><tspan y="23" x="8">0x00000000</tspan></text></g><g id="shape14" transform="translate(304,568)"><path stroke="#213849" fill="#00b4f0" fill-rule="evenodd" d="M95,38L95,0L0,0L0,38L95,38z"/><text class="st1"><tspan y="23" x="8">0x0063FDE4</tspan></text></g><g id="shape15" transform="translate(655.48,76.3)"><path stroke="#213849" fill="none" d="M0,0L-80.8,0"/><path stroke="#213849" stroke-linecap="round" stroke-width="1" fill="#213849" d="M-85.2,0L-80,3L-80,3C-80.5,2.1,-80.8,1.1,-80.8,0C-80.8,-1.1,-80.5,-2.1,-80,-3L-85.2,0"/></g><g id="shape16" transform="translate(655.48,60.3)"><path stroke="#213849" fill="none" d="M151,32L151,0L0,0L0,32L151,32z"/><text class="st1"><tspan y="20" x="12">高地址</tspan></text></g><g id="shape17" transform="translate(871.5,19)"><path stroke="#213849" fill="none" d="M189,151L189,0L0,0L0,151L189,151z"/><text class="st1"><tspan y="16" x="4">关于寄存器， </tspan><tspan y="32" x="4">16位bp,si,di,sp... </tspan><tspan y="48" x="4">32位ebp,esi,edi,esp... </tspan><tspan y="64" x="4">64位rbp,rsi,rdi,rsp... </tspan><tspan y="80" x="4">关于指令</tspan><tspan y="96" x="4">movb，处理8位</tspan><tspan y="112" x="4">movw，处理16位 </tspan><tspan y="128" x="4">movl，处理32位 </tspan><tspan y="144" x="4">movq，处理64位 </tspan><tspan y="160" x="4"> </tspan></text></g><g id="shape18" transform="translate(229,398)"><path stroke="#213849" fill="none" d="M0,0L70.6,0"/><path stroke="#213849" stroke-linecap="round" stroke-width="1" fill="#213849" d="M75,0L69.8,-3L69.8,-3C70.3,-2.1,70.6,-1.1,70.6,0C70.6,1.1,70.3,2.1,69.8,3L75,0"/></g><g id="shape19" transform="translate(21,379)"><path stroke="#213849" fill="#efab94" fill-rule="evenodd" d="M208,38L208,0L0,0L0,38L208,38z"/><text class="st1"><tspan y="16" x="4">2: movl $1, -80(%rbp) </tspan><tspan y="32" x="4">arr[0][0]</tspan></text></g><g id="shape20" transform="translate(21,302.85)"><path stroke="#213849" fill="#efab94" fill-rule="evenodd" d="M208,38L208,0L0,0L0,38L208,38z"/><text class="st1"><tspan y="16" x="4">2: movl $12, -36(%rbp) </tspan><tspan y="32" x="4">arr[2][3]</tspan></text></g><g id="shape21" transform="translate(475,302.85)"><path stroke="#213849" fill="#efab94" fill-rule="evenodd" d="M95,38L95,0L0,0L0,38L95,38z"/><text class="st1"><tspan y="23" x="16">0x63FDFC</tspan></text></g><g id="shape22" transform="translate(475,379)"><path stroke="#213849" fill="#efab94" fill-rule="evenodd" d="M95,38L95,0L0,0L0,38L95,38z"/><text class="st1"><tspan y="23" x="16">0x63FDD0</tspan></text></g><g id="shape23" transform="translate(475,341)"><path stroke="#213849" fill="#efab94" fill-rule="evenodd" d="M95,38L95,0L0,0L0,38L95,38z"/><text class="st1"><tspan y="23" x="36">...</tspan></text></g><g id="shape24" transform="translate(21,228)"><path stroke="#213849" fill="#deb887" fill-rule="evenodd" d="M208,38L208,0L0,0L0,38L208,38z"/><text class="st1"><tspan y="16" x="4">7 movq %rax, -24(%rbp) </tspan><tspan y="32" x="4">int *p4 = *arr;</tspan></text></g><g id="shape25" transform="translate(475,76)"><path stroke="#213849" fill="#fdb933" fill-rule="evenodd" d="M95,38L95,0L0,0L0,38L95,38z"/><text class="st1"><tspan y="23" x="16">0x63FE14</tspan></text></g><path id="shape26" stroke="#213849" transform="translate(475,114)" fill="#fdb933" fill-rule="evenodd" d="M95,38L95,0L0,0L0,38L95,38z"/><g id="shape27" transform="translate(475,152)"><path stroke="#213849" fill="#aa92ce" fill-rule="evenodd" d="M95,38L95,0L0,0L0,38L95,38z"/><text class="st1"><tspan y="23" x="16">0x63FE0C</tspan></text></g><path id="shape28" stroke="#213849" transform="translate(475,190)" fill="#aa92ce" fill-rule="evenodd" d="M95,38L95,0L0,0L0,38L95,38z"/><g id="shape29" transform="translate(475,228)"><path stroke="#213849" fill="#deb887" fill-rule="evenodd" d="M95,38L95,0L0,0L0,38L95,38z"/><text class="st1"><tspan y="23" x="16">0x63FE04</tspan></text></g><path id="shape30" stroke="#213849" transform="translate(475,265)" fill="#deb887" fill-rule="evenodd" d="M95,38L95,0L0,0L0,38L95,38z"/><g id="shape31" transform="translate(475,416)"><path stroke="#213849" fill="#ffffff" fill-rule="evenodd" d="M95,38L95,0L0,0L0,38L95,38z"/><text class="st1"><tspan y="23" x="20">...4...</tspan></text></g><g id="shape32" transform="translate(475,454)"><path stroke="#213849" fill="#00b4f0" fill-rule="evenodd" d="M95,38L95,0L0,0L0,38L95,38z"/><text class="st1"><tspan y="23" x="16">0x63FDC0</tspan></text></g><path id="shape33" stroke="#213849" transform="translate(475,492)" fill="#00b4f0" fill-rule="evenodd" d="M95,38L95,0L0,0L0,38L95,38z"/><g id="shape34" transform="translate(475,530)"><path stroke="#213849" fill="#00b4f0" fill-rule="evenodd" d="M95,38L95,0L0,0L0,38L95,38z"/><text class="st1"><tspan y="23" x="16">0x63FDB8</tspan></text></g><path id="shape35" stroke="#213849" transform="translate(475,568)" fill="#00b4f0" fill-rule="evenodd" d="M95,38L95,0L0,0L0,38L95,38z"/><g id="shape36" transform="translate(21,152)"><path stroke="#213849" fill="#aa92ce" fill-rule="evenodd" d="M208,38L208,0L0,0L0,38L208,38z"/><text class="st1"><tspan y="16" x="4">6: movq %rax, -16(%rbp) </tspan><tspan y="32" x="4">int (**p3)[4] = &amp;p1;</tspan></text></g><g id="shape37" transform="translate(21,76)"><path stroke="#213849" fill="#fdb933" fill-rule="evenodd" d="M208,38L208,0L0,0L0,38L208,38z"/><text class="st1"><tspan y="16" x="4">5: movq %rax, -8(%rbp) </tspan><tspan y="32" x="4">int *(*p2)[3] = &amp;pArr;</tspan></text></g><g id="shape38" transform="translate(21,38.3)"><path stroke="#213849" fill="#ffffff" fill-rule="evenodd" d="M208,19L208,0L0,0L0,19L208,19z"/><text class="st1"><tspan y="13.5" x="4">1: movq %rsp, %rbp</tspan></text></g><g id="shape39" transform="translate(304,38.3)"><path stroke="#213849" fill="#ffffff" fill-rule="evenodd" d="M95,38L95,0L0,0L0,38L95,38z"/><text class="st1"><tspan y="23" x="28">value</tspan></text></g><g id="shape40" transform="translate(475,38.3)"><path stroke="#213849" fill="#ffffff" fill-rule="evenodd" d="M95,38L95,0L0,0L0,38L95,38z"/><text class="st1"><tspan y="23" x="20">address</tspan></text></g><g id="shape41" transform="translate(20,454)"><path stroke="#213849" fill="#00b4f0" fill-rule="evenodd" d="M209,38L209,0L0,0L0,38L209,38z"/><text class="st1"><tspan y="16" x="4">3: movq %rax, -96(%rbp) </tspan><tspan y="32" x="4">pArr[2]</tspan></text></g><g id="shape42" transform="translate(20,530)"><path stroke="#213849" fill="#00b4f0" fill-rule="evenodd" d="M209,37.7L209,0L0,0L0,37.7L209,37.7z"/><text class="st1"><tspan y="16" x="4">3: movq %rax, -104(%rbp) </tspan><tspan y="32" x="4">pArr[1]</tspan></text></g><g id="shape43" transform="translate(304,605.3)"><path stroke="#213849" fill="#00b4f0" fill-rule="evenodd" d="M95,38L95,0L0,0L0,38L95,38z"/><text class="st1"><tspan y="23" x="8">0x00000000</tspan></text></g><g id="shape44" transform="translate(475,605.3)"><path stroke="#213849" fill="#00b4f0" fill-rule="evenodd" d="M95,38L95,0L0,0L0,38L95,38z"/><text class="st1"><tspan y="23" x="16">0x63FDB0</tspan></text></g><g id="shape45" transform="translate(304,643.3)"><path stroke="#213849" fill="#00b4f0" fill-rule="evenodd" d="M95,38L95,0L0,0L0,38L95,38z"/><text class="st1"><tspan y="23" x="8">0x0063FDD0</tspan></text></g><path id="shape46" stroke="#213849" transform="translate(475,643.3)" fill="#00b4f0" fill-rule="evenodd" d="M95,38L95,0L0,0L0,38L95,38z"/><g id="shape47" transform="translate(304,681.3)"><path stroke="#213849" fill="#46ba7d" fill-rule="evenodd" d="M95,38L95,0L0,0L0,38L95,38z"/><text class="st1"><tspan y="23" x="8">0x00000000</tspan></text></g><g id="shape48" transform="translate(475,681.3)"><path stroke="#213849" fill="#46ba7d" fill-rule="evenodd" d="M95,38L95,0L0,0L0,38L95,38z"/><text class="st1"><tspan y="23" x="16">0x63FDA8</tspan></text></g><g id="shape49" transform="translate(20,605.3)"><path stroke="#213849" fill="#00b4f0" fill-rule="evenodd" d="M209,38L209,0L0,0L0,38L209,38z"/><text class="st1"><tspan y="16" x="4">3: movq %rax, -112(%rbp) </tspan><tspan y="32" x="4">pArr[0]</tspan></text></g><g id="shape50" transform="translate(304,718.3)"><path stroke="#213849" fill="#46ba7d" fill-rule="evenodd" d="M95,38L95,0L0,0L0,38L95,38z"/><text class="st1"><tspan y="23" x="8">0x0063FDD0</tspan></text></g><path id="shape51" stroke="#213849" transform="translate(475,718.3)" fill="#46ba7d" fill-rule="evenodd" d="M95,38L95,0L0,0L0,38L95,38z"/><g id="shape52" transform="translate(20,680.3)"><path stroke="#213849" fill="#46ba7d" fill-rule="evenodd" d="M209,38L209,0L0,0L0,38L209,38z"/><text class="st1"><tspan y="16" x="4">4: movq %rax, -120(%rbp) </tspan><tspan y="32" x="4">int (*p1)[4] = arr;</tspan></text></g><g id="shape53" transform="translate(475,756.3)"><path stroke="#213849" fill="#ffffff" fill-rule="evenodd" d="M95,38L95,0L0,0L0,38L95,38z"/><text class="st1"><tspan y="23" x="36">...</tspan></text></g><g id="shape54" transform="translate(304,755.3)"><path stroke="#213849" fill="#ffffff" fill-rule="evenodd" d="M95,38L95,0L0,0L0,38L95,38z"/><text class="st1"><tspan y="23" x="36">...</tspan></text></g><g id="shape55" transform="translate(645,170)"><path stroke="#213849" fill="none" d="M453,605L453,0L0,0L0,605L453,605z"/><text class="st1"><tspan y="16" x="4">指针的本质就是用来存储地址的变量 </tspan><tspan y="32" x="4">数组名不占空间，数组名是数组的地址，也就是指针，该地址是数组首元素的</tspan><tspan y="48" x="4">地址 </tspan><tspan y="64" x="4"> </tspan><tspan y="80" x="4">int *(pArr[3]) = {arr[0], arr[1] + 1, arr[2] + 2}; </tspan><tspan y="96" x="4">首先，pArr是个数组，数组里的每个元素都是int型指针，先不要把pArr中</tspan><tspan y="112" x="4">元素与arr中元素进行关联。 </tspan><tspan y="128" x="4">那么pArr[0]这种下标运算只是取数组的元素而已，取出的元素是个int指</tspan><tspan y="144" x="4">针，既然是个int指针，对其+1或-1也就只是地址偏移多少的问题了，然后</tspan><tspan y="160" x="4">再解引用这个元素，便可以得到这个地址存的值 </tspan><tspan y="176" x="4"> </tspan><tspan y="192" x="4">int (*p1)[4] = arr; </tspan><tspan y="208" x="4">指向数组的指针，如果把数组看成指针，那就是指向指针的指针，就是一个二</tspan><tspan y="224" x="4">级指针，首先不管是几级的，终究是个指针，那存储的便是地址，关键是它的</tspan><tspan y="240" x="4">步长，因为p1是指向4个int的数组，所以如果 p1+1 的话，那地址立马就得</tspan><tspan y="256" x="4">向上偏移 4*sizeof(int)，然后你要是解引用一下的话*(p1+1)，你得到</tspan><tspan y="272" x="4">是一个数组(指针)，这次步长是sizeof(int)了，所以再次 *(p1+1)+1 </tspan><tspan y="288" x="4">就等于上移了5个int，也就是arr[1][1]了</tspan><tspan y="320" x="4">int *(*p2)[3] = &amp;pArr;</tspan><tspan y="336" x="4">指向指针指针数组的指针，如果我们把"数组"这两字换成"指针"，那不就是</tspan><tspan y="352" x="4">三级指针了，那怎么着也得解引用三次才能得到想要的值。首先来看p2的步</tspan><tspan y="368" x="4">长，是个数组，并且存的是指针，那步长就是 24=3*sizeof(int*)，个人</tspan><tspan y="384" x="4">觉得这个步长没啥用，那解一次引用呢？那就变成第一种情形了，指针数组，</tspan><tspan y="400" x="4">递归一下，*(*p2)[1]，还有一个有意思的形式 (*p2)[1][0]</tspan><tspan y="432" x="4">int (**p3)[4] = &amp;p1;</tspan><tspan y="448" x="4">从上面的例子可以看到，[]和*的作用基本一样。这个也把它看成3级指针，</tspan><tspan y="464" x="4">从里向外，第一级指的是数组指针，既然是指针，那么步长是 </tspan><tspan y="480" x="4">sizeof(int*)；第二级指的是数组，那么步长是 4*sizeof(int)；第三</tspan><tspan y="496" x="4">级(数组)指的是int，那么步长是sizeof(int)；我觉得第一级的步长也没</tspan><tspan y="512" x="4">啥用，*(*((*p3)+1)+1)，*(*(*p3)+5)都能得到想要的值，你知道</tspan><tspan y="528" x="4">***(p3+2)在这内存布局中值是多少吗？</tspan><tspan y="560" x="4">int *p4 = *arr;</tspan><tspan y="576" x="4">此时再看这个应该是非常简单了，不再叙述了</tspan></text></g><g id="shape56" transform="translate(475,360)"><path stroke="#213849" fill="none" d="M0,0C-4.2,0,-8.4,0,-19,0C-29.6,0,-46.4,0,-57,0C-64.1,0,-68.3,0,-71.6,0"/><path stroke="#213849" stroke-linecap="round" stroke-width="1" fill="#213849" d="M-76,0L-70.8,3L-70.8,3C-71.3,2.1,-71.6,1.1,-71.6,0C-71.6,-1.1,-71.3,-2.1,-70.8,-3L-76,0"/></g><g id="shape57" transform="translate(475,549)"><path stroke="#00b0f0" fill="none" d="M0,0L-72.1,36"/><path stroke="#00b0f0" stroke-linecap="round" stroke-width="1" fill="#00b0f0" d="M-76,38L-70,38.4L-70,38.4C-70.9,37.8,-71.6,37,-72.1,36C-72.6,35.1,-72.8,34,-72.7,33L-76,38"/></g><g id="shape58" transform="translate(570,549)"><path stroke="#00b0f0" fill="none" d="M0,0C7.3,-19.8,14.5,-39.5,18.2,-61.1C21.8,-82.8,21.8,-106.2,18.2,-127.9C14.7,-148.3,8.1,-167.1,1.2,-185.7"/><path stroke="#00b0f0" stroke-linecap="round" stroke-width="1" fill="#00b0f0" d="M0,-189L-1,-183.1L-1,-183.1C-0.4,-183.9,.5,-184.5,1.5,-184.9C2.5,-185.3,3.6,-185.3,4.6,-185.2L0,-189"/></g><g id="shape59" transform="translate(475,700.3)"><path stroke="#00b050" fill="none" d="M0,0L-71.6,0"/><path stroke="#00b050" stroke-linecap="round" stroke-width="1" fill="#00b050" d="M-76,0L-70.8,3L-70.8,3C-71.3,2.1,-71.6,1.1,-71.6,0C-71.6,-1.1,-71.3,-2.1,-70.8,-3L-76,0"/></g><g id="shape60" transform="translate(570,700.3)"><path stroke="#00b050" fill="none" d="M0,0C11.6,-31.6,23.2,-63.2,29.1,-97.8C34.9,-132.4,34.9,-169.9,29.1,-204.5C23.5,-237.7,12.5,-268.2,1.4,-298.5"/><path stroke="#00b050" stroke-linecap="round" stroke-width="1" fill="#00b050" d="M0,-302.3L-1,-296.4L-1,-296.4C-0.4,-297.2,.5,-297.8,1.5,-298.2C2.5,-298.6,3.6,-298.6,4.6,-298.5L0,-302.3"/></g><g id="shape61" transform="translate(229,47.8)"><path stroke="#213849" fill="none" d="M0,0L71.3,44.9"/><path stroke="#213849" stroke-linecap="round" stroke-width="1" fill="#213849" d="M75,47.2L72.2,41.9L72.2,41.9C72.2,42.9,71.9,43.9,71.3,44.9C70.7,45.8,69.9,46.5,69,47L75,47.2"/></g><g id="shape62" transform="translate(229,95)"><path stroke="#ffc000" fill="none" d="M0,0L71.1,36"/><path stroke="#ffc000" stroke-linecap="round" stroke-width="1" fill="#ffc000" d="M75,38L71.7,33L71.7,33C71.8,34,71.6,35,71.1,36C70.6,37,69.9,37.8,69,38.3L75,38"/></g><g id="shape63" transform="translate(229,171)"><path stroke="#7030a0" fill="none" d="M0,0L71.1,36"/><path stroke="#7030a0" stroke-linecap="round" stroke-width="1" fill="#7030a0" d="M75,38L71.7,33L71.7,33C71.8,34,71.6,35,71.1,36C70.6,37,69.9,37.8,69,38.3L75,38"/></g><g id="shape64" transform="translate(229,247)"><path stroke="#213849" fill="none" d="M0,0L71.1,35.1"/><path stroke="#213849" stroke-linecap="round" stroke-width="1" fill="#213849" d="M75,37L71.7,32L71.7,32C71.7,33,71.5,34.1,71.1,35.1C70.6,36,69.9,36.8,69,37.4L75,37"/></g><g id="shape65" transform="translate(229,321.85)"><path stroke="#213849" fill="none" d="M0,0L70.6,0"/><path stroke="#213849" stroke-linecap="round" stroke-width="1" fill="#213849" d="M75,0L69.8,-3L69.8,-3C70.3,-2.1,70.6,-1.1,70.6,0C70.6,1.1,70.3,2.1,69.8,3L75,0"/></g><g id="shape66" transform="translate(229,473)"><path stroke="#00b0f0" fill="none" d="M0,0L71.1,36"/><path stroke="#00b0f0" stroke-linecap="round" stroke-width="1" fill="#00b0f0" d="M75,38L71.7,33L71.7,33C71.8,34,71.6,35,71.1,36C70.6,37,69.9,37.8,69,38.3L75,38"/></g><g id="shape67" transform="translate(229,548.85)"><path stroke="#00b0f0" fill="none" d="M0,0L71.1,36.2"/><path stroke="#00b0f0" stroke-linecap="round" stroke-width="1" fill="#00b0f0" d="M75,38.1L71.7,33.1L71.7,33.1C71.8,34.1,71.6,35.2,71.1,36.2C70.6,37.1,69.9,37.9,69,38.5L75,38.1"/></g><g id="shape68" transform="translate(229,624.3)"><path stroke="#00b0f0" fill="none" d="M0,0L71.1,36"/><path stroke="#00b0f0" stroke-linecap="round" stroke-width="1" fill="#00b0f0" d="M75,38L71.7,33L71.7,33C71.8,34,71.6,35,71.1,36C70.6,37,69.9,37.8,69,38.3L75,38"/></g><g id="shape69" transform="translate(229,699.3)"><path stroke="#00b050" fill="none" d="M0,0L71.1,36"/><path stroke="#00b050" stroke-linecap="round" stroke-width="1" fill="#00b050" d="M75,38L71.7,33L71.7,33C71.8,34,71.6,35,71.1,36C70.6,37,69.9,37.8,69,38.3L75,38"/></g><g id="shape70" transform="translate(475,473)"><path stroke="#00b0f0" fill="none" d="M0,0L-72.1,36"/><path stroke="#00b0f0" stroke-linecap="round" stroke-width="1" fill="#00b0f0" d="M-76,38L-70,38.4L-70,38.4C-70.9,37.8,-71.6,37,-72.1,36C-72.6,35.1,-72.8,34,-72.7,33L-76,38"/></g><g id="shape71" transform="translate(475,624.3)"><path stroke="#00b0f0" fill="none" d="M0,0L-72.1,36"/><path stroke="#00b0f0" stroke-linecap="round" stroke-width="1" fill="#00b0f0" d="M-76,38L-70,38.4L-70,38.4C-70.9,37.8,-71.6,37,-72.1,36C-72.6,35.1,-72.8,34,-72.7,33L-76,38"/></g><g id="shape72" transform="translate(475,247)"><path stroke="#213849" fill="none" d="M0,0L-72.1,35.1"/><path stroke="#213849" stroke-linecap="round" stroke-width="1" fill="#213849" d="M-76,37L-70,37.4L-70,37.4C-70.9,36.9,-71.6,36.1,-72.1,35.1C-72.5,34.1,-72.7,33,-72.6,32L-76,37"/></g><g id="shape73" transform="translate(475,171)"><path stroke="#7030a0" fill="none" d="M0,0L-72.1,36"/><path stroke="#7030a0" stroke-linecap="round" stroke-width="1" fill="#7030a0" d="M-76,38L-70,38.4L-70,38.4C-70.9,37.8,-71.6,37,-72.1,36C-72.6,35.1,-72.8,34,-72.7,33L-76,38"/></g><g id="shape74" transform="translate(475,95)"><path stroke="#ffc000" fill="none" d="M0,0L-72.1,36"/><path stroke="#ffc000" stroke-linecap="round" stroke-width="1" fill="#ffc000" d="M-76,38L-70,38.4L-70,38.4C-70.9,37.8,-71.6,37,-72.1,36C-72.6,35.1,-72.8,34,-72.7,33L-76,38"/></g><g id="shape75" transform="translate(570,95)"><path stroke="#ffc000" fill="none" d="M0,0C20.4,55.3,40.7,110.7,50.9,171.2C61.1,231.8,61.1,297.5,50.9,358.1C40.9,417.7,21,472.2,1,526.7"/><path stroke="#ffc000" stroke-linecap="round" stroke-width="1" fill="#ffc000" d="M0,529.3L4.6,525.5L4.6,525.5C3.6,525.6,2.5,525.6,1.5,525.2C.5,524.8,-0.4,524.2,-1,523.4L0,529.3"/></g><g id="shape76" transform="translate(475,624.3)"><path stroke="#00b0f0" fill="none" d="M0,0C-8.7,-23.7,-17.4,-47.3,-21.8,-73.2C-26.1,-99.1,-26.1,-127.2,-21.8,-153.1C-17.6,-177.7,-9.5,-200.4,-1.3,-222.9"/><path stroke="#00b0f0" stroke-linecap="round" stroke-width="1" fill="#00b0f0" d="M0,-226.3L-4.6,-222.5L-4.6,-222.5C-3.6,-222.6,-2.5,-222.6,-1.5,-222.2C-0.5,-221.8,.4,-221.2,1,-220.4L0,-226.3"/></g><g id="shape77" transform="translate(570,171)"><path stroke="#7030a0" fill="none" d="M0,0C28.8,68,57.7,136,63.3,231.7C69,327.4,51.4,450.8,37,505C23.4,556,12.7,545.8,2,532"/><path stroke="#7030a0" stroke-linecap="round" stroke-width="1" fill="#7030a0" d="M0,529.3L.8,535.3L.8,535.3C1.1,534.3,1.8,533.5,2.7,532.8C3.5,532.1,4.5,531.7,5.5,531.6L0,529.3"/></g></g></svg>