<svg xmlns="http://www.w3.org/2000/svg" width="313" xmlns:ev="http://www.w3.org/2001/xml-events" height="432" xmlns:xlink="http://www.w3.org/1999/xlink" viewBox="0 0 313 432"><style type="text/css"><![CDATA[
.st1 {fill:#000000;font-family:YaHei Monaco Hybird;font-size:10pt}
]]></style><defs/><g id="page2" transform="translate(5,5)"><rect width="303" height="422" stroke="#808080" y="0" fill="#ffffff" x="0"/><g transform="translate(170.24,152)"><g id="shape1" transform="translate(56.76,9.5)"><path stroke="#213849" fill="none" d="M0,0L-52.4,.8"/><path stroke="#213849" stroke-linecap="round" stroke-width="1" fill="#213849" d="M-56.8,.9L-51.5,3.8L-51.5,3.8C-52,2.9,-52.3,1.9,-52.4,.8C-52.4,-0.3,-52.1,-1.3,-51.6,-2.2L-56.8,.9"/></g><g id="shape2" transform="translate(56.76,0)"><text class="st1"><tspan y="13.5" x="20">-8</tspan></text></g></g><g transform="translate(170.62,39)"><g id="shape3" transform="translate(56.76,9.5)"><path stroke="#213849" fill="none" d="M0,0L-52.4,.8"/><path stroke="#213849" stroke-linecap="round" stroke-width="1" fill="#213849" d="M-56.8,.9L-51.5,3.8L-51.5,3.8C-52,2.9,-52.3,1.9,-52.4,.8C-52.4,-0.3,-52.1,-1.3,-51.6,-2.2L-56.8,.9"/></g><g id="shape4" transform="translate(56.76,0)"><text class="st1"><tspan y="13.5" x="20">-2</tspan></text></g></g><g transform="translate(170.24,77)"><g id="shape5" transform="translate(56.76,9.5)"><path stroke="#213849" fill="none" d="M0,0L-52.4,.8"/><path stroke="#213849" stroke-linecap="round" stroke-width="1" fill="#213849" d="M-56.8,.9L-51.5,3.8L-51.5,3.8C-52,2.9,-52.3,1.9,-52.4,.8C-52.4,-0.3,-52.1,-1.3,-51.6,-2.2L-56.8,.9"/></g><g id="shape6" transform="translate(56.76,0)"><text class="st1"><tspan y="13.5" x="20">-4</tspan></text></g></g><g transform="translate(170.24,228.5)"><g id="shape7" transform="translate(51.38,9.49)"><path stroke="#213849" fill="none" d="M0,0L-47,.1"/><path stroke="#213849" stroke-linecap="round" stroke-width="1" fill="#213849" d="M-51.4,.2L-46.2,3.1L-46.2,3.1C-46.7,2.3,-47,1.2,-47,.1C-47,-0.9,-46.7,-2,-46.2,-2.9L-51.4,.2"/></g><g id="shape8" transform="translate(56.76,0)"><text class="st1"><tspan y="13.5" x="16">-12</tspan></text></g></g><g transform="translate(170.62,303)"><g id="shape9" transform="translate(56.76,9.5)"><path stroke="#213849" fill="none" d="M0,0L-52.4,.8"/><path stroke="#213849" stroke-linecap="round" stroke-width="1" fill="#213849" d="M-56.8,.9L-51.5,3.8L-51.5,3.8C-52,2.9,-52.3,1.9,-52.4,.8C-52.4,-0.3,-52.1,-1.3,-51.6,-2.2L-56.8,.9"/></g><g id="shape10" transform="translate(56.76,0)"><text class="st1"><tspan y="13.5" x="16">-16</tspan></text></g></g><g transform="translate(170.62,379)"><g id="shape11" transform="translate(56.76,9.5)"><path stroke="#213849" fill="none" d="M0,0L-52.4,.8"/><path stroke="#213849" stroke-linecap="round" stroke-width="1" fill="#213849" d="M-56.8,.9L-51.5,3.8L-51.5,3.8C-52,2.9,-52.3,1.9,-52.4,.8C-52.4,-0.3,-52.1,-1.3,-51.6,-2.2L-56.8,.9"/></g><g id="shape12" transform="translate(56.76,0)"><text class="st1"><tspan y="13.5" x="16">-20</tspan></text></g></g><g transform="translate(75.76,20)"><path id="shape13" stroke="#000000" fill="#79b64c" fill-rule="evenodd" d="M94.5,19L94.5,0L0,0L0,19L94.5,19z"/><g id="shape14" transform="translate(0,19)"><path stroke="#213849" fill="#79b64c" fill-rule="evenodd" d="M94.5,19L94.5,0L0,0L0,19L94.5,19z"/><text class="st1"><tspan y="13.5" x="31.2">p1.s</tspan></text></g><path id="shape15" stroke="#000000" transform="translate(0,38.39)" fill="#868686" fill-rule="evenodd" d="M94.5,19L94.5,0L0,0L0,19L94.5,19z"/><g id="shape16" transform="translate(0,57.09)"><path stroke="#213849" fill="#0099d2" fill-rule="evenodd" d="M94.5,19L94.5,0L0,0L0,19L94.5,19z"/><text class="st1"><tspan y="13.5" x="31.2">p1.c</tspan></text></g><path id="shape17" stroke="#213849" transform="translate(0,75.78)" fill="#fda98d" fill-rule="evenodd" d="M94.5,19L94.5,0L0,0L0,19L94.5,19z"/><path id="shape18" stroke="#213849" transform="translate(0,95.48)" fill="#fda98d" fill-rule="evenodd" d="M94.5,19L94.5,0L0,0L0,19L94.5,19z"/><path id="shape19" stroke="#213849" transform="translate(0,114.17)" fill="#fda98d" fill-rule="evenodd" d="M94.5,19L94.5,0L0,0L0,19L94.5,19z"/><g id="shape20" transform="translate(0,132.87)"><path stroke="#213849" fill="#fda98d" fill-rule="evenodd" d="M94.5,19L94.5,0L0,0L0,19L94.5,19z"/><text class="st1"><tspan y="13.5" x="31.2">p1.x</tspan></text></g><path id="shape21" stroke="#213849" transform="translate(0,151.57)" fill="#868686" fill-rule="evenodd" d="M94.5,19L94.5,0L0,0L0,19L94.5,19z"/><path id="shape22" stroke="#213849" transform="translate(0,171.26)" fill="#868686" fill-rule="evenodd" d="M94.5,19L94.5,0L0,0L0,19L94.5,19z"/><path id="shape23" stroke="#213849" transform="translate(0,189.96)" fill="#868686" fill-rule="evenodd" d="M94.5,19L94.5,0L0,0L0,19L94.5,19z"/><g id="shape24" transform="translate(0,208.65)"><path stroke="#213849" fill="#0099d2" fill-rule="evenodd" d="M94.5,19L94.5,0L0,0L0,19L94.5,19z"/><text class="st1"><tspan y="13.5" x="31.2">p2.c</tspan></text></g><path id="shape25" stroke="#213849" transform="translate(0,228.35)" fill="#fda98d" fill-rule="evenodd" d="M94.5,19L94.5,0L0,0L0,19L94.5,19z"/><path id="shape26" stroke="#213849" transform="translate(0,247.04)" fill="#fda98d" fill-rule="evenodd" d="M94.5,19L94.5,0L0,0L0,19L94.5,19z"/><path id="shape27" stroke="#213849" transform="translate(0,265.74)" fill="#fda98d" fill-rule="evenodd" d="M94.5,19L94.5,0L0,0L0,19L94.5,19z"/><g id="shape28" transform="translate(0,285.43)"><path stroke="#213849" fill="#fda98d" fill-rule="evenodd" d="M94.5,19L94.5,0L0,0L0,19L94.5,19z"/><text class="st1"><tspan y="13.5" x="31.2">p2.x</tspan></text></g><path id="shape29" stroke="#213849" transform="translate(0,304.13)" fill="#868686" fill-rule="evenodd" d="M94.5,19L94.5,0L0,0L0,19L94.5,19z"/><path id="shape30" stroke="#213849" transform="translate(0,322.83)" fill="#868686" fill-rule="evenodd" d="M94.5,19L94.5,0L0,0L0,19L94.5,19z"/><path id="shape31" stroke="#213849" transform="translate(0,341.52)" fill="#79b64c" fill-rule="evenodd" d="M94.5,19L94.5,0L0,0L0,19L94.5,19z"/><g id="shape32" transform="translate(0,361.22)"><path stroke="#213849" fill="#79b64c" fill-rule="evenodd" d="M94.5,19L94.5,0L0,0L0,19L94.5,19z"/><text class="st1"><tspan y="13.5" x="31.2">p2.s</tspan></text></g></g><g transform="translate(19,20)"><g id="shape33"><path stroke="#213849" fill="none" d="M38,151L38,0L0,0L0,151L38,151z"/><text class="st1"><tspan y="79.5" x="11">P1</tspan></text></g><g id="shape34" transform="translate(0,150.5)"><path stroke="#213849" fill="none" d="M38,229.7L38,0L0,0L0,229.7L38,229.7z"/><text class="st1"><tspan y="118.9" x="11">P2</tspan></text></g></g></g></svg>