<svg xmlns="http://www.w3.org/2000/svg" height="1638" viewBox="0 0 1124 1638" xmlns:xlink="http://www.w3.org/1999/xlink" xmlns:ev="http://www.w3.org/2001/xml-events" width="1124"><style type="text/css"><![CDATA[
.st1 {fill:#000000;font-family:YaHei Monaco Hybird;font-size:10pt}
.st7 {fill:#0070c0}
.st8 {fill:#0099d2}
.st3 {fill:#00b0f0}
.st11 {fill:#191919;font-family:YaHei Monaco Hybird;font-size:10pt}
.st12 {fill:#2e8d5d;font-family:YaHei Monaco Hybird;font-size:10pt}
.st4 {fill:#2e8d5d}
.st2 {fill:#79b64c}
.st10 {fill:#a83132}
.st13 {fill:#c00000;font-family:YaHei Monaco Hybird;font-size:10pt}
.st6 {fill:#c00000}
.st14 {fill:#ca3d3e;font-family:YaHei Monaco Hybird;font-size:10pt}
.st9 {fill:#ca3d3e}
.st15 {fill:#eb8989;font-family:YaHei Monaco Hybird;font-size:10pt}
.st5 {fill:#eb8989}
]]></style><defs/><g transform="translate(5,5)" id="page1"><rect stroke="#808080" height="1628" y="0" x="0" width="1114" fill="#ffffff"/><g transform="translate(20,95.7)" id="shape1"><path stroke="#213849" fill="none" d="M326,265.3L326,0L0,0L0,265.3L326,265.3z"/><text class="st1"><tspan y="16" x="4">main:</tspan><tspan y="32" x="4">	</tspan><tspan class="st2">pushq	%rbp</tspan><tspan class="st2" y="48" x="4">	movq	%rsp, %rbp</tspan><tspan class="st2" y="64" x="4">	subq	$64, %rsp</tspan><tspan y="80" x="4">	call	__main</tspan><tspan y="96" x="4">	</tspan><tspan class="st3">movl	$6, %edx</tspan><tspan class="st3" y="112" x="4">	movl	$5, %ecx</tspan><tspan class="st3" y="128" x="4">	call	pointFun</tspan><tspan y="144" x="4">	</tspan><tspan class="st4">movq	%rax, -8(%rbp)</tspan><tspan y="160" x="4">	</tspan><tspan class="st5">call	getIntP</tspan><tspan y="176" x="4">	</tspan><tspan class="st6">movq	%rax, -16(%rbp)</tspan></text></g><g transform="translate(20,418)" id="shape2"><path stroke="#213849" fill="none" d="M326,388L326,0L0,0L0,388L326,388z"/><text class="st1"><tspan y="16" x="4">pointFun:</tspan><tspan y="32" x="4">	</tspan><tspan class="st7">pushq	%rbp</tspan><tspan class="st7" y="48" x="4">	movq	%rsp, %rbp</tspan><tspan class="st7" y="64" x="4">	subq	$48, %rsp</tspan><tspan y="80" x="4">	</tspan><tspan class="st8">movl	%ecx, 16(%rbp)</tspan><tspan class="st8" y="96" x="4">	movl	%edx, 24(%rbp)</tspan><tspan class="st8" y="112" x="4">	movl	16(%rbp), %eax</tspan><tspan class="st8" y="128" x="4">	addl	$1, %eax</tspan><tspan class="st8" y="144" x="4">	movl	%eax, -8(%rbp)</tspan><tspan class="st8" y="160" x="4">	movl	24(%rbp), %eax</tspan><tspan class="st8" y="176" x="4">	addl	$2, %eax</tspan><tspan class="st8" y="192" x="4">	movl	%eax, -4(%rbp)</tspan><tspan class="st8" y="208" x="4">	leaq	-8(%rbp), %rax</tspan><tspan class="st8" y="224" x="4">	leaq	4(%rax), %rdx</tspan><tspan class="st8" y="240" x="4">	leaq	-8(%rbp), %rax</tspan><tspan y="256" x="4">	...</tspan><tspan y="272" x="4">	</tspan><tspan class="st4">movq	-8(%rbp), %rax</tspan><tspan class="st4" y="288" x="4">	addq	$48, %rsp</tspan><tspan class="st4" y="304" x="4">	popq	%rbp</tspan><tspan class="st4" y="320" x="4">	ret</tspan></text></g><g transform="translate(22.48,950.94)" id="shape3"><path stroke="#213849" fill="none" d="M323.5,336.1L323.5,0L0,0L0,336.1L323.5,336.1z"/><text class="st1"><tspan y="16" x="4.3">getIntP:</tspan><tspan y="32" x="4.3">	</tspan><tspan class="st5">pushq	%rbp</tspan><tspan class="st5" y="48" x="4.3">	movq	%rsp, %rbp</tspan><tspan class="st5" y="64" x="4.3">	subq	$64, %rsp</tspan><tspan y="80" x="4.3">	</tspan><tspan class="st9">movl	$12, %ecx</tspan><tspan class="st9" y="96" x="4.3">	call	malloc</tspan><tspan class="st9" y="112" x="4.3">	movq	%rax, -8(%rbp)</tspan><tspan class="st9" y="128" x="4.3">	movq	-8(%rbp), %rax</tspan><tspan class="st9" y="144" x="4.3">	movl	$10, (%rax)</tspan><tspan class="st9" y="160" x="4.3">	movq	-8(%rbp), %rax</tspan><tspan class="st9" y="176" x="4.3">	addq	$4, %rax</tspan><tspan class="st9" y="192" x="4.3">	movl	$11, (%rax)</tspan><tspan class="st9" y="208" x="4.3">	movq	-8(%rbp), %rax</tspan><tspan class="st9" y="224" x="4.3">	addq	$8, %rax</tspan><tspan class="st9" y="240" x="4.3">	movl	$12, (%rax)</tspan><tspan y="256" x="4.3">           ...</tspan><tspan y="272" x="4.3">	</tspan><tspan class="st10">movq	-8(%rbp), %rax</tspan><tspan class="st10" y="288" x="4.3">	addq	$64, %rsp</tspan><tspan class="st10" y="304" x="4.3">	popq	%rbp</tspan><tspan class="st10" y="320" x="4.3">	ret</tspan></text></g><g transform="translate(554,19.25)" id="table4"><g><path stroke="#a0a0a4" fill="#ffffff" d="M0,0L211.5,0L211.5,62L0,62L0,0z"/><text class="st11"><tspan y="19" x="9">与进程相关的数据结构(例如，页</tspan><tspan y="35" x="9">表，task，mm，内核栈等)，对</tspan><tspan y="51" x="9">每个进程都不一样</tspan></text></g><g><path stroke="#a0a0a4" fill="#ffffff" d="M211.5,0L313.5,0L313.5,62L211.5,62L211.5,0z"/><text class="st11"/></g><g><path stroke="#a0a0a4" fill="#ffffff" d="M313.5,0L358.5,0L358.5,62L313.5,62L313.5,0z"/><text class="st11"/></g><g><path stroke="#a0a0a4" fill="#ffffff" d="M358.5,0L401.5,0L401.5,62L358.5,62L358.5,0z"/><text class="st11"/></g><g><path stroke="#a0a0a4" fill="#ffffff" d="M0,62L211.5,62L211.5,108L0,108L0,62z"/><text class="st11"><tspan y="89" x="9">物理内存，对每个进程都一样</tspan></text></g><g><path stroke="#a0a0a4" fill="#ffffff" d="M211.5,62L313.5,62L313.5,108L211.5,108L211.5,62z"/><text class="st11"/></g><g><path stroke="#a0a0a4" fill="#ffffff" d="M313.5,62L358.5,62L358.5,108L313.5,108L313.5,62z"/><text class="st11"/></g><g><path stroke="#a0a0a4" fill="#ffffff" d="M358.5,62L401.5,62L401.5,108L358.5,108L358.5,62z"/><text class="st11"/></g><g><path stroke="#a0a0a4" fill="#ffffff" d="M0,108L211.5,108L211.5,154L0,154L0,108z"/><text class="st11"><tspan y="127" x="9">内核代码和数据，对每个程序都</tspan><tspan y="143" x="9">一样</tspan></text></g><g><path stroke="#a0a0a4" fill="#ffffff" d="M211.5,108L313.5,108L313.5,154L211.5,154L211.5,108z"/><text class="st11"/></g><g><path stroke="#a0a0a4" fill="#ffffff" d="M313.5,108L358.5,108L358.5,154L313.5,154L313.5,108z"/><text class="st11"/></g><g><path stroke="#a0a0a4" fill="#ffffff" d="M358.5,108L401.5,108L401.5,154L358.5,154L358.5,108z"/><text class="st11"/></g><g><path stroke="#a0a0a4" fill="#ffffff" d="M0,154L211.5,154L211.5,200L0,200L0,154z"/><text class="st11"><tspan y="173" x="9">用户运行栈(命令函参数，环境变</tspan><tspan y="189" x="9">量)</tspan></text></g><g><path stroke="#a0a0a4" fill="#ffffff" d="M211.5,154L313.5,154L313.5,200L211.5,200L211.5,154z"/><text class="st11"/></g><g><path stroke="#a0a0a4" fill="#ffffff" d="M313.5,154L358.5,154L358.5,200L313.5,200L313.5,154z"/><text class="st11"/></g><g><path stroke="#a0a0a4" fill="#ffffff" d="M358.5,154L401.5,154L401.5,200L358.5,200L358.5,154z"/><text class="st11"/></g><g><path stroke="#a0a0a4" fill="#ffffff" d="M0,200L211.5,200L211.5,240L0,240L0,200z"/><text class="st11"/></g><g><path stroke="#a0a0a4" fill="#ffffff" d="M211.5,200L313.5,200L313.5,240L211.5,240L211.5,200z"/><text class="st11"/></g><g><path stroke="#a0a0a4" fill="#ffffff" d="M313.5,200L358.5,200L358.5,240L313.5,240L313.5,200z"/><text class="st11"><tspan y="224" x="322.5">+4</tspan></text></g><g><path stroke="#a0a0a4" fill="#ffffff" d="M358.5,200L401.5,200L401.5,240L358.5,240L358.5,200z"/><text class="st11"/></g><g><path stroke="#a0a0a4" fill="#bed742" d="M0,240L211.5,240L211.5,280L0,280L0,240z"/><text class="st11"><tspan y="264" x="9">%rbp = 0</tspan></text></g><g><path stroke="#a0a0a4" fill="#ffffff" d="M211.5,240L313.5,240L313.5,280L211.5,280L211.5,240z"/><text class="st11"/></g><g><path stroke="#a0a0a4" fill="#ffffff" d="M313.5,240L358.5,240L358.5,280L313.5,280L313.5,240z"/><text class="st11"/></g><g><path stroke="#a0a0a4" fill="#ffffff" d="M358.5,240L401.5,240L401.5,280L358.5,280L358.5,240z"/><text class="st11"/></g><g><path stroke="#a0a0a4" fill="#ffffff" d="M0,280L211.5,280L211.5,320L0,320L0,280z"/><text class="st12"><tspan y="304" x="9">6</tspan></text></g><g><path stroke="#a0a0a4" fill="#ffffff" d="M211.5,280L313.5,280L313.5,320L211.5,320L211.5,280z"/><text class="st12"><tspan y="304" x="220.5">0x62FE14</tspan></text></g><g><path stroke="#a0a0a4" fill="#ffffff" d="M313.5,280L358.5,280L358.5,320L313.5,320L313.5,280z"/><text class="st11"><tspan y="304" x="322.5">-4</tspan></text></g><g><path stroke="#a0a0a4" fill="#ffffff" d="M358.5,280L401.5,280L401.5,320L358.5,320L358.5,280z"/><text class="st11"/></g><g><path stroke="#a0a0a4" fill="#ffffff" d="M0,320L211.5,320L211.5,360L0,360L0,320z"/><text class="st12"><tspan y="344" x="9">5</tspan></text></g><g><path stroke="#a0a0a4" fill="#ffffff" d="M211.5,320L313.5,320L313.5,360L211.5,360L211.5,320z"/><text class="st12"><tspan y="344" x="220.5">0x62FE18</tspan></text></g><g><path stroke="#a0a0a4" fill="#ffffff" d="M313.5,320L358.5,320L358.5,360L313.5,360L313.5,320z"/><text class="st11"><tspan y="344" x="322.5">-8</tspan></text></g><g><path stroke="#a0a0a4" fill="#ffffff" d="M358.5,320L401.5,320L401.5,360L358.5,360L358.5,320z"/><text class="st11"/></g><g><path stroke="#a0a0a4" fill="#ffffff" d="M0,360L211.5,360L211.5,400L0,400L0,360z"/><text class="st11"/></g><g><path stroke="#a0a0a4" fill="#ffffff" d="M211.5,360L313.5,360L313.5,400L211.5,400L211.5,360z"/><text class="st11"/></g><g><path stroke="#a0a0a4" fill="#ffffff" d="M313.5,360L358.5,360L358.5,400L313.5,400L313.5,360z"/><text class="st11"><tspan y="384" x="322.5">-12</tspan></text></g><g><path stroke="#a0a0a4" fill="#ffffff" d="M358.5,360L401.5,360L401.5,400L358.5,400L358.5,360z"/><text class="st11"/></g><g><path stroke="#a0a0a4" fill="#ffffff" d="M0,400L211.5,400L211.5,440L0,440L0,400z"/><text class="st13"><tspan y="424" x="9">0x2642CA0</tspan></text></g><g><path stroke="#a0a0a4" fill="#ffffff" d="M211.5,400L313.5,400L313.5,440L211.5,440L211.5,400z"/><text class="st13"><tspan y="424" x="220.5">0x62FE10</tspan></text></g><g><path stroke="#a0a0a4" fill="#ffffff" d="M313.5,400L358.5,400L358.5,440L313.5,440L313.5,400z"/><text class="st11"><tspan y="424" x="322.5">-16</tspan></text></g><g><path stroke="#a0a0a4" fill="#ffffff" d="M358.5,400L401.5,400L401.5,440L358.5,440L358.5,400z"/><text class="st11"/></g><g><path stroke="#a0a0a4" fill="#ffffff" d="M0,440L211.5,440L211.5,480L0,480L0,440z"/><text class="st11"/></g><g><path stroke="#a0a0a4" fill="#ffffff" d="M211.5,440L313.5,440L313.5,480L211.5,480L211.5,440z"/><text class="st11"/></g><g><path stroke="#a0a0a4" fill="#ffffff" d="M313.5,440L358.5,440L358.5,480L313.5,480L313.5,440z"/><text class="st11"><tspan y="464" x="322.5">-20</tspan></text></g><g><path stroke="#a0a0a4" fill="#ffffff" d="M358.5,440L401.5,440L401.5,480L358.5,480L358.5,440z"/><text class="st11"/></g><g><path stroke="#a0a0a4" fill="#ffffff" d="M0,480L211.5,480L211.5,520L0,520L0,480z"/><text class="st11"><tspan y="504" x="9">...</tspan></text></g><g><path stroke="#a0a0a4" fill="#ffffff" d="M211.5,480L313.5,480L313.5,520L211.5,520L211.5,480z"/><text class="st11"/></g><g><path stroke="#a0a0a4" fill="#ffffff" d="M313.5,480L358.5,480L358.5,520L313.5,520L313.5,480z"/><text class="st11"/></g><g><path stroke="#a0a0a4" fill="#ffffff" d="M358.5,480L401.5,480L401.5,520L358.5,520L358.5,480z"/><text class="st11"/></g><g><path stroke="#a0a0a4" fill="#ffffff" d="M0,520L211.5,520L211.5,560L0,560L0,520z"/><text class="st11"/></g><g><path stroke="#a0a0a4" fill="#ffffff" d="M211.5,520L313.5,520L313.5,560L211.5,560L211.5,520z"/><text class="st11"/></g><g><path stroke="#a0a0a4" fill="#ffffff" d="M313.5,520L358.5,520L358.5,560L313.5,560L313.5,520z"/><text class="st11"><tspan y="544" x="322.5">-48</tspan></text></g><g><path stroke="#a0a0a4" fill="#ffffff" d="M358.5,520L401.5,520L401.5,560L358.5,560L358.5,520z"/><text class="st11"/></g><g><path stroke="#a0a0a4" fill="#30c9f7" d="M0,560L211.5,560L211.5,600L0,600L0,560z"/><text class="st11"/></g><g><path stroke="#a0a0a4" fill="#ffffff" d="M211.5,560L313.5,560L313.5,600L211.5,600L211.5,560z"/><text class="st11"/></g><g><path stroke="#a0a0a4" fill="#ffffff" d="M313.5,560L358.5,560L358.5,600L313.5,600L313.5,560z"/><text class="st11"><tspan y="584" x="322.5">-52</tspan></text></g><g><path stroke="#a0a0a4" fill="#ffffff" d="M358.5,560L401.5,560L401.5,600L358.5,600L358.5,560z"/><text class="st11"/></g><g><path stroke="#a0a0a4" fill="#30c9f7" d="M0,600L211.5,600L211.5,640L0,640L0,600z"/><text class="st11"><tspan y="624" x="9">%edx = 6</tspan></text></g><g><path stroke="#a0a0a4" fill="#ffffff" d="M211.5,600L313.5,600L313.5,640L211.5,640L211.5,600z"/><text class="st11"/></g><g><path stroke="#a0a0a4" fill="#ffffff" d="M313.5,600L358.5,600L358.5,640L313.5,640L313.5,600z"/><text class="st11"><tspan y="624" x="322.5">-56</tspan></text></g><g><path stroke="#a0a0a4" fill="#ffffff" d="M358.5,600L401.5,600L401.5,640L358.5,640L358.5,600z"/><text class="st11"><tspan y="624" x="367.5">+24</tspan></text></g><g><path stroke="#a0a0a4" fill="#30c9f7" d="M0,640L211.5,640L211.5,680L0,680L0,640z"/><text class="st11"/></g><g><path stroke="#a0a0a4" fill="#ffffff" d="M211.5,640L313.5,640L313.5,680L211.5,680L211.5,640z"/><text class="st11"/></g><g><path stroke="#a0a0a4" fill="#ffffff" d="M313.5,640L358.5,640L358.5,680L313.5,680L313.5,640z"/><text class="st11"><tspan y="664" x="322.5">-60</tspan></text></g><g><path stroke="#a0a0a4" fill="#ffffff" d="M358.5,640L401.5,640L401.5,680L358.5,680L358.5,640z"/><text class="st11"><tspan y="664" x="367.5">+20</tspan></text></g><g><path stroke="#a0a0a4" fill="#30c9f7" d="M0,680L211.5,680L211.5,720L0,720L0,680z"/><text class="st11"><tspan y="704" x="9">%ecx = 5</tspan></text></g><g><path stroke="#a0a0a4" fill="#ffffff" d="M211.5,680L313.5,680L313.5,720L211.5,720L211.5,680z"/><text class="st11"/></g><g><path stroke="#a0a0a4" fill="#ffffff" d="M313.5,680L358.5,680L358.5,720L313.5,720L313.5,680z"/><text class="st11"><tspan y="704" x="322.5">-64</tspan></text></g><g><path stroke="#a0a0a4" fill="#ffffff" d="M358.5,680L401.5,680L401.5,720L358.5,720L358.5,680z"/><text class="st11"><tspan y="704" x="367.5">+16</tspan></text></g><g><path stroke="#a0a0a4" fill="#ffffff" d="M0,720L211.5,720L211.5,760L0,760L0,720z"/><text class="st11"/></g><g><path stroke="#a0a0a4" fill="#ffffff" d="M211.5,720L313.5,720L313.5,760L211.5,760L211.5,720z"/><text class="st11"/></g><g><path stroke="#a0a0a4" fill="#ffffff" d="M313.5,720L358.5,720L358.5,760L313.5,760L313.5,720z"/><text class="st11"/></g><g><path stroke="#a0a0a4" fill="#ffffff" d="M358.5,720L401.5,720L401.5,760L358.5,760L358.5,720z"/><text class="st11"><tspan y="744" x="367.5">+12</tspan></text></g><g><path stroke="#a0a0a4" fill="#30c9f7" d="M0,760L211.5,760L211.5,806L0,806L0,760z"/><text class="st11"><tspan y="779" x="9">%rip = pointFun</tspan><tspan y="795" x="9">%rip = getIntP</tspan></text></g><g><path stroke="#a0a0a4" fill="#ffffff" d="M211.5,760L313.5,760L313.5,806L211.5,806L211.5,760z"/><text class="st11"/></g><g><path stroke="#a0a0a4" fill="#ffffff" d="M313.5,760L358.5,760L358.5,806L313.5,806L313.5,760z"/><text class="st11"/></g><g><path stroke="#a0a0a4" fill="#ffffff" d="M358.5,760L401.5,760L401.5,806L358.5,806L358.5,760z"/><text class="st11"><tspan y="787" x="367.5">+8</tspan></text></g><g><path stroke="#a0a0a4" fill="#ffffff" d="M0,806L211.5,806L211.5,846L0,846L0,806z"/><text class="st11"/></g><g><path stroke="#a0a0a4" fill="#ffffff" d="M211.5,806L313.5,806L313.5,846L211.5,846L211.5,806z"/><text class="st11"/></g><g><path stroke="#a0a0a4" fill="#ffffff" d="M313.5,806L358.5,806L358.5,846L313.5,846L313.5,806z"/><text class="st11"/></g><g><path stroke="#a0a0a4" fill="#ffffff" d="M358.5,806L401.5,806L401.5,846L358.5,846L358.5,806z"/><text class="st11"><tspan y="830" x="367.5">+4</tspan></text></g><g><path stroke="#a0a0a4" fill="#008ccc" d="M0,846L211.5,846L211.5,886L0,886L0,846z"/><text class="st11"><tspan y="870" x="9">%rbp = 8</tspan></text></g><g><path stroke="#a0a0a4" fill="#ffffff" d="M211.5,846L313.5,846L313.5,886L211.5,886L211.5,846z"/><text class="st11"/></g><g><path stroke="#a0a0a4" fill="#ffffff" d="M313.5,846L358.5,846L358.5,886L313.5,886L313.5,846z"/><text class="st11"/></g><g><path stroke="#a0a0a4" fill="#ffffff" d="M358.5,846L401.5,846L401.5,886L358.5,886L358.5,846z"/><text class="st11"/></g><g><path stroke="#a0a0a4" fill="#ffffff" d="M0,886L211.5,886L211.5,926L0,926L0,886z"/><text class="st11"><tspan class="st8" y="910" x="9">8</tspan><tspan>          | </tspan><tspan class="st9">0x0</tspan></text></g><g><path stroke="#a0a0a4" fill="#ffffff" d="M211.5,886L313.5,886L313.5,926L211.5,926L211.5,886z"/><text class="st11"><tspan y="910" x="220.5">0x62FDCC</tspan></text></g><g><path stroke="#a0a0a4" fill="#ffffff" d="M313.5,886L358.5,886L358.5,926L313.5,926L313.5,886z"/><text class="st11"/></g><g><path stroke="#a0a0a4" fill="#ffffff" d="M358.5,886L401.5,886L401.5,926L358.5,926L358.5,886z"/><text class="st11"><tspan y="910" x="367.5">-4</tspan></text></g><g><path stroke="#a0a0a4" fill="#ffffff" d="M0,926L211.5,926L211.5,966L0,966L0,926z"/><text class="st11"><tspan class="st8" y="950" x="9">6 </tspan><tspan>         | </tspan><tspan class="st9">0x2642CA8</tspan></text></g><g><path stroke="#a0a0a4" fill="#ffffff" d="M211.5,926L313.5,926L313.5,966L211.5,966L211.5,926z"/><text class="st11"><tspan y="950" x="220.5">0x62FDC8</tspan></text></g><g><path stroke="#a0a0a4" fill="#ffffff" d="M313.5,926L358.5,926L358.5,966L313.5,966L313.5,926z"/><text class="st11"/></g><g><path stroke="#a0a0a4" fill="#ffffff" d="M358.5,926L401.5,926L401.5,966L358.5,966L358.5,926z"/><text class="st11"><tspan y="950" x="367.5">-8</tspan></text></g><g><path stroke="#a0a0a4" fill="#ffffff" d="M0,966L211.5,966L211.5,1006L0,1006L0,966z"/><text class="st11"><tspan y="990" x="9">...</tspan></text></g><g><path stroke="#a0a0a4" fill="#ffffff" d="M211.5,966L313.5,966L313.5,1006L211.5,1006L211.5,966z"/><text class="st11"/></g><g><path stroke="#a0a0a4" fill="#ffffff" d="M313.5,966L358.5,966L358.5,1006L313.5,1006L313.5,966z"/><text class="st11"/></g><g><path stroke="#a0a0a4" fill="#ffffff" d="M358.5,966L401.5,966L401.5,1006L358.5,1006L358.5,966z"/><text class="st11"/></g><g><path stroke="#a0a0a4" fill="#ffffff" d="M0,1006L211.5,1006L211.5,1046L0,1046L0,1006z"/><text class="st11"/></g><g><path stroke="#a0a0a4" fill="#ffffff" d="M211.5,1006L313.5,1006L313.5,1046L211.5,1046L211.5,1006z"/><text class="st11"/></g><g><path stroke="#a0a0a4" fill="#ffffff" d="M313.5,1006L358.5,1006L358.5,1046L313.5,1046L313.5,1006z"/><text class="st11"/></g><g><path stroke="#a0a0a4" fill="#ffffff" d="M358.5,1006L401.5,1006L401.5,1046L358.5,1046L358.5,1006z"/><text class="st11"><tspan y="1030" x="367.5">-48</tspan></text></g><g><path stroke="#a0a0a4" fill="#ffffff" d="M0,1046L211.5,1046L211.5,1086L0,1086L0,1046z"/><text class="st11"><tspan y="1070" x="9">...</tspan></text></g><g><path stroke="#a0a0a4" fill="#ffffff" d="M211.5,1046L313.5,1046L313.5,1086L211.5,1086L211.5,1046z"/><text class="st11"/></g><g><path stroke="#a0a0a4" fill="#ffffff" d="M313.5,1046L358.5,1046L358.5,1086L313.5,1086L313.5,1046z"/><text class="st11"/></g><g><path stroke="#a0a0a4" fill="#ffffff" d="M358.5,1046L401.5,1046L401.5,1086L358.5,1086L358.5,1046z"/><text class="st11"/></g><g><path stroke="#a0a0a4" fill="#ffffff" d="M0,1086L211.5,1086L211.5,1126L0,1126L0,1086z"/><text class="st11"/></g><g><path stroke="#a0a0a4" fill="#ffffff" d="M211.5,1086L313.5,1086L313.5,1126L211.5,1126L211.5,1086z"/><text class="st11"/></g><g><path stroke="#a0a0a4" fill="#ffffff" d="M313.5,1086L358.5,1086L358.5,1126L313.5,1126L313.5,1086z"/><text class="st11"/></g><g><path stroke="#a0a0a4" fill="#ffffff" d="M358.5,1086L401.5,1086L401.5,1126L358.5,1126L358.5,1086z"/><text class="st11"><tspan y="1110" x="367.5">-64</tspan></text></g><g><path stroke="#a0a0a4" fill="#ffffff" d="M0,1126L211.5,1126L211.5,1166L0,1166L0,1126z"/><text class="st11"><tspan y="1150" x="9">...   ↓</tspan></text></g><g><path stroke="#a0a0a4" fill="#ffffff" d="M211.5,1126L313.5,1126L313.5,1166L211.5,1166L211.5,1126z"/><text class="st11"/></g><g><path stroke="#a0a0a4" fill="#ffffff" d="M313.5,1126L358.5,1126L358.5,1166L313.5,1166L313.5,1126z"/><text class="st11"/></g><g><path stroke="#a0a0a4" fill="#ffffff" d="M358.5,1126L401.5,1126L401.5,1166L358.5,1166L358.5,1126z"/><text class="st11"/></g><g><path stroke="#a0a0a4" fill="#ffffff" d="M0,1166L211.5,1166L211.5,1228L0,1228L0,1166z"/><text class="st11"><tspan y="1185" x="9">unused memory</tspan><tspan y="1201" x="9">dynamic libraries</tspan><tspan y="1217" x="9">unused memory</tspan></text></g><g><path stroke="#a0a0a4" fill="#ffffff" d="M211.5,1166L313.5,1166L313.5,1228L211.5,1228L211.5,1166z"/><text class="st11"/></g><g><path stroke="#a0a0a4" fill="#ffffff" d="M313.5,1166L358.5,1166L358.5,1228L313.5,1228L313.5,1166z"/><text class="st11"/></g><g><path stroke="#a0a0a4" fill="#ffffff" d="M358.5,1166L401.5,1166L401.5,1228L358.5,1228L358.5,1166z"/><text class="st11"/></g><g><path stroke="#a0a0a4" fill="#ffffff" d="M0,1228L211.5,1228L211.5,1268L0,1268L0,1228z"/><text class="st11"><tspan y="1252" x="9">...   ↑</tspan></text></g><g><path stroke="#a0a0a4" fill="#ffffff" d="M211.5,1228L313.5,1228L313.5,1268L211.5,1268L211.5,1228z"/><text class="st11"/></g><g><path stroke="#a0a0a4" fill="#ffffff" d="M313.5,1228L358.5,1228L358.5,1268L313.5,1268L313.5,1228z"/><text class="st11"/></g><g><path stroke="#a0a0a4" fill="#ffffff" d="M358.5,1228L401.5,1228L401.5,1268L358.5,1268L358.5,1228z"/><text class="st11"/></g><g><path stroke="#a0a0a4" fill="#ffffff" d="M0,1268L211.5,1268L211.5,1308L0,1308L0,1268z"/><text class="st14"><tspan y="1292" x="9">12</tspan></text></g><g><path stroke="#a0a0a4" fill="#ffffff" d="M211.5,1268L313.5,1268L313.5,1308L211.5,1308L211.5,1268z"/><text class="st14"><tspan y="1292" x="220.5">0x02642CA8</tspan></text></g><g><path stroke="#a0a0a4" fill="#ffffff" d="M313.5,1268L358.5,1268L358.5,1308L313.5,1308L313.5,1268z"/><text class="st11"/></g><g><path stroke="#a0a0a4" fill="#ffffff" d="M358.5,1268L401.5,1268L401.5,1308L358.5,1308L358.5,1268z"/><text class="st11"/></g><g><path stroke="#a0a0a4" fill="#ffffff" d="M0,1308L211.5,1308L211.5,1348L0,1348L0,1308z"/><text class="st14"><tspan y="1332" x="9">11</tspan></text></g><g><path stroke="#a0a0a4" fill="#ffffff" d="M211.5,1308L313.5,1308L313.5,1348L211.5,1348L211.5,1308z"/><text class="st14"><tspan y="1332" x="220.5">0x02642CA4</tspan></text></g><g><path stroke="#a0a0a4" fill="#ffffff" d="M313.5,1308L358.5,1308L358.5,1348L313.5,1348L313.5,1308z"/><text class="st11"/></g><g><path stroke="#a0a0a4" fill="#ffffff" d="M358.5,1308L401.5,1308L401.5,1348L358.5,1348L358.5,1308z"/><text class="st11"/></g><g><path stroke="#a0a0a4" fill="#ffffff" d="M0,1348L211.5,1348L211.5,1388L0,1388L0,1348z"/><text class="st14"><tspan y="1372" x="9">10</tspan></text></g><g><path stroke="#a0a0a4" fill="#ffffff" d="M211.5,1348L313.5,1348L313.5,1388L211.5,1388L211.5,1348z"/><text class="st14"><tspan y="1372" x="220.5">0x02642CA0</tspan></text></g><g><path stroke="#a0a0a4" fill="#ffffff" d="M313.5,1348L358.5,1348L358.5,1388L313.5,1388L313.5,1348z"/><text class="st11"/></g><g><path stroke="#a0a0a4" fill="#ffffff" d="M358.5,1348L401.5,1348L401.5,1388L358.5,1388L358.5,1348z"/><text class="st11"/></g><g><path stroke="#a0a0a4" fill="#ffffff" d="M0,1388L211.5,1388L211.5,1428L0,1428L0,1388z"/><text class="st11"><tspan y="1412" x="9">...</tspan></text></g><g><path stroke="#a0a0a4" fill="#ffffff" d="M211.5,1388L313.5,1388L313.5,1428L211.5,1428L211.5,1388z"/><text class="st11"/></g><g><path stroke="#a0a0a4" fill="#ffffff" d="M313.5,1388L358.5,1388L358.5,1428L313.5,1428L313.5,1388z"/><text class="st11"/></g><g><path stroke="#a0a0a4" fill="#ffffff" d="M358.5,1388L401.5,1388L401.5,1428L358.5,1428L358.5,1388z"/><text class="st11"/></g><g><path stroke="#a0a0a4" fill="#ffffff" d="M0,1428L211.5,1428L211.5,1468L0,1468L0,1428z"/><text class="st11"><tspan y="1452" x="9">RW (.bss,.data)</tspan></text></g><g><path stroke="#a0a0a4" fill="#ffffff" d="M211.5,1428L313.5,1428L313.5,1468L211.5,1468L211.5,1428z"/><text class="st11"/></g><g><path stroke="#a0a0a4" fill="#ffffff" d="M313.5,1428L358.5,1428L358.5,1468L313.5,1468L313.5,1428z"/><text class="st11"/></g><g><path stroke="#a0a0a4" fill="#ffffff" d="M358.5,1428L401.5,1428L401.5,1468L358.5,1468L358.5,1428z"/><text class="st11"/></g><g><path stroke="#a0a0a4" fill="#ffffff" d="M0,1468L211.5,1468L211.5,1508L0,1508L0,1468z"/><text class="st11"><tspan y="1492" x="9">RO (.init,.rodata)</tspan></text></g><g><path stroke="#a0a0a4" fill="#ffffff" d="M211.5,1468L313.5,1468L313.5,1508L211.5,1508L211.5,1468z"/><text class="st11"/></g><g><path stroke="#a0a0a4" fill="#ffffff" d="M313.5,1468L358.5,1468L358.5,1508L313.5,1508L313.5,1468z"/><text class="st11"/></g><g><path stroke="#a0a0a4" fill="#ffffff" d="M358.5,1468L401.5,1468L401.5,1508L358.5,1508L358.5,1468z"/><text class="st11"/></g><g><path stroke="#a0a0a4" fill="#ffffff" d="M0,1508L211.5,1508L211.5,1548L0,1548L0,1508z"/><text class="st11"><tspan y="1532" x="9">.text</tspan></text></g><g><path stroke="#a0a0a4" fill="#ffffff" d="M211.5,1508L313.5,1508L313.5,1548L211.5,1548L211.5,1508z"/><text class="st11"><tspan y="1532" x="220.5">0x00400000</tspan></text></g><g><path stroke="#a0a0a4" fill="#ffffff" d="M313.5,1508L358.5,1508L358.5,1548L313.5,1548L313.5,1508z"/><text class="st11"/></g><g><path stroke="#a0a0a4" fill="#ffffff" d="M358.5,1508L401.5,1508L401.5,1548L358.5,1548L358.5,1508z"/><text class="st11"/></g><g><path stroke="#a0a0a4" fill="#ffffff" d="M0,1548L211.5,1548L211.5,1588L0,1588L0,1548z"/><text class="st11"><tspan y="1572" x="9">reserved</tspan></text></g><g><path stroke="#a0a0a4" fill="#ffffff" d="M211.5,1548L313.5,1548L313.5,1588L211.5,1588L211.5,1548z"/><text class="st11"><tspan y="1572" x="220.5">0x0</tspan></text></g><g><path stroke="#a0a0a4" fill="#ffffff" d="M313.5,1548L358.5,1548L358.5,1588L313.5,1588L313.5,1548z"/><text class="st11"/></g><g><path stroke="#a0a0a4" fill="#ffffff" d="M358.5,1548L401.5,1548L401.5,1588L358.5,1588L358.5,1548z"/><text class="st11"/></g></g><g transform="translate(365,200)" id="shape5"><path stroke="#213849" fill="#ffffff" fill-rule="evenodd" d="M133,37.3L133,0L0,0L0,37.3L133,37.3z"/><text class="st1"><tspan y="22.6" x="24">0: rsp, rbp</tspan></text></g><g transform="translate(498,218.65)" id="shape6"><path stroke="#213849" fill="none" d="M0,0L51.6,0"/><path stroke="#213849" stroke-linecap="round" stroke-width="1" fill="#213849" d="M56,0L50.8,-3L50.8,-3C51.3,-2.1,51.6,-1.1,51.6,0C51.6,1.1,51.3,2.1,50.8,3L56,0"/></g><g transform="translate(365,280)" id="shape7"><path stroke="#213849" fill="#bed742" fill-rule="evenodd" d="M133,37.3L133,0L0,0L0,37.3L133,37.3z"/><text class="st1"><tspan y="23" x="43">1: rbp</tspan></text></g><g transform="translate(498,298.65)" id="shape8"><path stroke="#213849" fill="none" d="M0,0L51.6,0"/><path stroke="#213849" stroke-linecap="round" stroke-width="1" fill="#213849" d="M56,0L50.8,-3L50.8,-3C51.3,-2.1,51.6,-1.1,51.6,0C51.6,1.1,51.3,2.1,50.8,3L56,0"/></g><g transform="translate(365,720)" id="shape9"><path stroke="#213849" fill="#bed742" fill-rule="evenodd" d="M133,37.3L133,0L0,0L0,37.3L133,37.3z"/><text class="st1"><tspan y="23" x="43">1: rsp</tspan></text></g><g transform="translate(498,738.65)" id="shape10"><path stroke="#213849" fill="none" d="M0,0L51.6,0"/><path stroke="#213849" stroke-linecap="round" stroke-width="1" fill="#213849" d="M56,0L50.8,-3L50.8,-3C51.3,-2.1,51.6,-1.1,51.6,0C51.6,1.1,51.3,2.1,50.8,3L56,0"/></g><g transform="translate(365,805.35)" id="shape11"><path stroke="#213849" fill="#30c9f7" fill-rule="evenodd" d="M133,37.3L133,0L0,0L0,37.3L133,37.3z"/><text class="st1"><tspan y="23" x="43">2: rsp</tspan></text></g><g transform="translate(498,824)" id="shape12"><path stroke="#213849" fill="none" d="M0,0L51.6,0"/><path stroke="#213849" stroke-linecap="round" stroke-width="1" fill="#213849" d="M56,0L50.8,-3L50.8,-3C51.3,-2.1,51.6,-1.1,51.6,0C51.6,1.1,51.3,2.1,50.8,3L56,0"/></g><g transform="translate(365,1046.7)" id="shape13"><path stroke="#213849" fill="#008ccc" fill-rule="evenodd" d="M133,37.3L133,0L0,0L0,37.3L133,37.3z"/><text class="st1"><tspan y="23" x="43">3: rsp</tspan></text></g><g transform="translate(498,1065.35)" id="shape14"><path stroke="#213849" fill="none" d="M0,0L51.6,0"/><path stroke="#213849" stroke-linecap="round" stroke-width="1" fill="#213849" d="M56,0L50.8,-3L50.8,-3C51.3,-2.1,51.6,-1.1,51.6,0C51.6,1.1,51.3,2.1,50.8,3L56,0"/></g><g transform="translate(365,1126)" id="shape15"><path stroke="#213849" fill="#ffffff" fill-rule="evenodd" d="M133,37.3L133,0L0,0L0,37.3L133,37.3z"/><text class="st15"><tspan y="23" x="43">8: rsp</tspan></text></g><g transform="translate(498,1144.65)" id="shape16"><path stroke="#213849" fill="none" d="M0,0L51.6,0"/><path stroke="#213849" stroke-linecap="round" stroke-width="1" fill="#213849" d="M56,0L50.8,-3L50.8,-3C51.3,-2.1,51.6,-1.1,51.6,0C51.6,1.1,51.3,2.1,50.8,3L56,0"/></g><g transform="translate(365,885)" id="shape17"><path stroke="#213849" fill="#008ccc" fill-rule="evenodd" d="M133,37.3L133,0L0,0L0,37.3L133,37.3z"/><text class="st1"><tspan y="23" x="43">3: rbp</tspan></text></g><g transform="translate(498,903.65)" id="shape18"><path stroke="#213849" fill="none" d="M0,0L51.6,0"/><path stroke="#213849" stroke-linecap="round" stroke-width="1" fill="#213849" d="M56,0L50.8,-3L50.8,-3C51.3,-2.1,51.6,-1.1,51.6,0C51.6,1.1,51.3,2.1,50.8,3L56,0"/></g><g transform="translate(365,1268)" id="shape19"><path stroke="#213849" fill="#ffffff" fill-rule="evenodd" d="M133,37.3L133,0L0,0L0,37.3L133,37.3z"/><text class="st1"><tspan y="23" x="43">0: brk</tspan></text></g><g transform="translate(498,1286.65)" id="shape20"><path stroke="#213849" fill="none" d="M0,0L51.6,0"/><path stroke="#213849" stroke-linecap="round" stroke-width="1" fill="#213849" d="M56,0L50.8,-3L50.8,-3C51.3,-2.1,51.6,-1.1,51.6,0C51.6,1.1,51.3,2.1,50.8,3L56,0"/></g><g transform="translate(365,1528)" id="shape21"><path stroke="#213849" fill="#ffffff" fill-rule="evenodd" d="M189,38L189,0L0,0L0,38L189,38z"/><text class="st1"><tspan y="23" x="27">32bit: 0x08048000</tspan></text></g><g transform="translate(956,20.25)"><g id="shape22"><path stroke="#323232" fill="none" d="M139,152.8L139,0L0,0L0,152.8L139,152.8z"/><text class="st1"><tspan y="80.4" x="31">内核虚拟内存</tspan></text></g><g transform="translate(0,152.75)" id="shape23"><path stroke="#323232" fill="none" d="M139,1435.2L139,0L0,0L0,1435.2L139,1435.2z"/><text class="st1"><tspan y="721.6" x="31">进程虚拟内存</tspan></text></g></g></g></svg>